<?xml version="1.0" standalone="no"?>
<!DOCTYPE svg PUBLIC "-//W3C//DTD SVG 20010904//EN"
 "http://www.w3.org/TR/2001/REC-SVG-20010904/DTD/svg10.dtd">
<svg version="1.0" xmlns="http://www.w3.org/2000/svg"
 width="700.000000pt" height="700.000000pt" viewBox="0 0 700.000000 700.000000"
 preserveAspectRatio="xMidYMid meet">
<metadata>
Created by potrace 1.11, written by Peter Selinger 2001-2013
</metadata>
<g transform="translate(0.000000,700.000000) scale(0.100000,-0.100000)"
fill="#000000" stroke="none">
<path d="M3343 6980 c-81 -21 -2653 -1089 -2778 -1153 -141 -73 -265 -220
-317 -377 -55 -166 -25 -802 62 -1317 249 -1474 1008 -2776 2095 -3593 226
-170 424 -291 670 -412 185 -90 275 -119 395 -125 163 -9 308 40 605 205 646
359 1252 926 1701 1593 481 712 791 1517 928 2409 77 501 99 1083 48 1240 -44
133 -145 267 -259 343 -82 54 -2715 1156 -2838 1187 -99 25 -216 25 -312 0z
m1364 -1377 l1193 -496 0 -76 c0 -95 -16 -305 -36 -481 -163 -1432 -868 -2668
-1939 -3402 -93 -63 -276 -173 -364 -218 l-61 -30 0 2600 c0 1430 3 2600 7
2600 4 0 544 -223 1200 -497z"/>
</g>
</svg>
